<?xml version="1.0" standalone="no"?>
<!DOCTYPE svg PUBLIC "-//W3C//DTD SVG 20010904//EN"
 "http://www.w3.org/TR/2001/REC-SVG-20010904/DTD/svg10.dtd">
<svg version="1.0" xmlns="http://www.w3.org/2000/svg"
 width="720.000000pt" height="720.000000pt" viewBox="0 0 720.000000 720.000000"
 preserveAspectRatio="xMidYMid meet">
<metadata>
Created by potrace 1.14, written by Peter Selinger 2001-2017
</metadata>
<g transform="translate(0.000000,720.000000) scale(0.100000,-0.100000)"
fill="#000000" stroke="none">
<path d="M849 4574 c-401 -80 -700 -392 -755 -789 -10 -71 -11 -279 -1 -355
31 -254 168 -487 372 -638 103 -76 216 -126 380 -169 17 -4 1245 -9 2730 -10
2174 -2 2713 1 2765 11 371 74 646 323 740 671 56 203 45 506 -24 689 -107
283 -340 493 -643 579 l-78 22 -2710 1 c-2218 1 -2722 -1 -2776 -12z"/>
</g>
</svg>
